<?plantuml 1.2026.2beta3?><svg xmlns="http://www.w3.org/2000/svg" xmlns:xlink="http://www.w3.org/1999/xlink" contentStyleType="text/css" data-diagram-type="DESCRIPTION" height="1114px" preserveAspectRatio="none" style="width:1183px;height:1114px;background:#FFFFFF;" version="1.1" viewBox="0 0 1183 1114" width="1183px" zoomAndPan="magnify"><title>Coordination Mod&#252;l&#252; Use Cases</title><defs/><g><g class="title" data-source-line="1"><text fill="#000000" font-family="sans-serif" font-size="14" font-weight="bold" lengthAdjust="spacing" textLength="249.7305" x="459.9198" y="22.9951">Coordination Mod&#252;l&#252; Use Cases</text></g><!--cluster Coordination--><g class="cluster" data-qualified-name="Coordination" data-source-line="23" id="ent0005"><path d="M843.5,135.7969 L946.2256,135.7969 A3.75,3.75 0 0 1 948.7256,138.2969 L955.7256,158.0938 L1174.07,158.0938 A2.5,2.5 0 0 1 1176.57,160.5938 L1176.57,1105.2969 A2.5,2.5 0 0 1 1174.07,1107.7969 L843.5,1107.7969 A2.5,2.5 0 0 1 841,1105.2969 L841,138.2969 A2.5,2.5 0 0 1 843.5,135.7969" fill="none" style="stroke:#000000;stroke-width:1.5;"/><line style="stroke:#000000;stroke-width:1.5;" x1="841" x2="955.7256" y1="158.0938" y2="158.0938"/><text fill="#000000" font-family="sans-serif" font-size="14" font-weight="bold" lengthAdjust="spacing" textLength="101.7256" x="845" y="150.792">Coordination</text></g><!--entity CTA--><g class="entity" data-qualified-name="Coordination.CTA" data-source-line="24" id="ent0006"><ellipse cx="1008.7771" cy="734.7983" fill="#F1F1F1" rx="117.9571" ry="25.9914" style="stroke:#181818;stroke-width:0.5;"/><text fill="#000000" font-family="sans-serif" font-size="14" lengthAdjust="spacing" textLength="214.9902" x="901.2819" y="739.4467">CTA: &#214;&#287;retmen-&#304;&#351;letme Atama</text></g><!--entity CVS--><g class="entity" data-qualified-name="Coordination.CVS" data-source-line="25" id="ent0007"><ellipse cx="1008.7834" cy="545.8015" fill="#F1F1F1" rx="126.6234" ry="27.7247" style="stroke:#181818;stroke-width:0.5;"/><text fill="#000000" font-family="sans-serif" font-size="14" lengthAdjust="spacing" textLength="233.4336" x="892.0666" y="550.45">CVS: Ziyaret Program&#305; Olu&#351;turma</text></g><!--entity CLR--><g class="entity" data-qualified-name="Coordination.CLR" data-source-line="26" id="ent0008"><ellipse cx="1008.7837" cy="640.7936" fill="#F1F1F1" rx="151.7837" ry="32.7567" style="stroke:#181818;stroke-width:0.5;"/><text fill="#000000" font-family="sans-serif" font-size="14" lengthAdjust="spacing" textLength="286.1934" x="865.687" y="645.442">CLR: Lokasyon Bazl&#305; Rota Optimizasyonu</text></g><!--entity CQR--><g class="entity" data-qualified-name="Coordination.CQR" data-source-line="27" id="ent0009"><ellipse cx="1008.7751" cy="364.7919" fill="#F1F1F1" rx="126.8751" ry="27.775" style="stroke:#181818;stroke-width:0.5;"/><text fill="#000000" font-family="sans-serif" font-size="14" lengthAdjust="spacing" textLength="233.9668" x="891.7917" y="369.4403">CQR: Karekodlu Rapor Olu&#351;turma</text></g><!--entity CVR--><g class="entity" data-qualified-name="Coordination.CVR" data-source-line="28" id="ent0010"><ellipse cx="1008.7797" cy="275.7988" fill="#F1F1F1" rx="118.7597" ry="26.1519" style="stroke:#181818;stroke-width:0.5;"/><text fill="#000000" font-family="sans-serif" font-size="14" lengthAdjust="spacing" textLength="216.7061" x="900.4267" y="280.4472">CVR: Ziyaret Raporu Doldurma</text></g><!--entity CDT--><g class="entity" data-qualified-name="Coordination.CDT" data-source-line="29" id="ent0011"><ellipse cx="1008.7766" cy="192.7982" fill="#F1F1F1" rx="99.3066" ry="22.2613" style="stroke:#181818;stroke-width:0.5;"/><text fill="#000000" font-family="sans-serif" font-size="14" lengthAdjust="spacing" textLength="174.5283" x="921.5124" y="197.4466">CDT: Evrak Teslim Takibi</text></g><!--entity CCI--><g class="entity" data-qualified-name="Coordination.CCI" data-source-line="30" id="ent0012"><ellipse cx="1008.7793" cy="455.7967" fill="#F1F1F1" rx="126.8493" ry="27.7699" style="stroke:#181818;stroke-width:0.5;"/><text fill="#000000" font-family="sans-serif" font-size="14" lengthAdjust="spacing" textLength="233.9121" x="891.8232" y="460.4452">CCI: Koordinat&#246;r-&#214;&#287;renci &#304;leti&#351;imi</text></g><!--entity CTS--><g class="entity" data-qualified-name="Coordination.CTS" data-source-line="31" id="ent0013"><ellipse cx="1008.7833" cy="903.7975" fill="#F1F1F1" rx="120.2033" ry="26.4407" style="stroke:#181818;stroke-width:0.5;"/><text fill="#000000" font-family="sans-serif" font-size="14" lengthAdjust="spacing" textLength="212.126" x="902.7204" y="906.6199">CTS: &#214;&#287;retmen Ders Program&#305;</text><text fill="#000000" font-family="sans-serif" font-size="14" lengthAdjust="spacing" textLength="61.5098" x="978.0285" y="922.9168">Y&#246;netimi</text></g><!--entity CDD--><g class="entity" data-qualified-name="Coordination.CDD" data-source-line="32" id="ent0014"><ellipse cx="1008.7845" cy="988.7958" fill="#F1F1F1" rx="107.0445" ry="23.8089" style="stroke:#181818;stroke-width:0.5;"/><text fill="#000000" font-family="sans-serif" font-size="14" lengthAdjust="spacing" textLength="165.2998" x="926.1346" y="988.9526">CDD: Alan Bazl&#305; &#304;&#351;letme</text><text fill="#000000" font-family="sans-serif" font-size="14" lengthAdjust="spacing" textLength="59.042" x="979.2635" y="1005.2495">Da&#287;&#305;t&#305;m&#305;</text></g><!--entity CWC--><g class="entity" data-qualified-name="Coordination.CWC" data-source-line="33" id="ent0015"><ellipse cx="1008.7771" cy="1069.8003" fill="#F1F1F1" rx="99.9171" ry="22.3834" style="stroke:#181818;stroke-width:0.5;"/><text fill="#000000" font-family="sans-serif" font-size="14" lengthAdjust="spacing" textLength="175.875" x="920.8396" y="1074.4487">CWC: &#304;&#351; Y&#252;k&#252; Hesaplama</text></g><!--entity CDA--><g class="entity" data-qualified-name="Coordination.CDA" data-source-line="34" id="ent0016"><ellipse cx="1008.7778" cy="818.7944" fill="#F1F1F1" rx="103.5378" ry="23.1076" style="stroke:#181818;stroke-width:0.5;"/><text fill="#000000" font-family="sans-serif" font-size="14" lengthAdjust="spacing" textLength="183.8252" x="916.8652" y="823.4429">CDA: Da&#287;&#305;t&#305;m Onay S&#252;reci</text></g><!--entity Teacher--><g class="entity" data-qualified-name="Teacher" data-source-line="7" id="ent0002"><ellipse cx="398.0018" cy="335.1469" fill="#F1F1F1" rx="8" ry="8" style="stroke:#181818;stroke-width:0.5;"/><path d="M398.0018,343.1469 L398.0018,370.1469 M385.0018,351.1469 L411.0018,351.1469 M398.0018,370.1469 L385.0018,385.1469 M398.0018,370.1469 L411.0018,385.1469" fill="none" style="stroke:#181818;stroke-width:0.5;"/><text fill="#000000" font-family="sans-serif" font-size="14" lengthAdjust="spacing" textLength="56.6836" x="369.66" y="399.642">Teacher</text></g><!--entity InstAdmin--><g class="entity" data-qualified-name="InstAdmin" data-source-line="13" id="ent0003"><ellipse cx="398.0001" cy="705.1469" fill="#F1F1F1" rx="8" ry="8" style="stroke:#181818;stroke-width:0.5;"/><path d="M398.0001,713.1469 L398.0001,740.1469 M385.0001,721.1469 L411.0001,721.1469 M398.0001,740.1469 L385.0001,755.1469 M398.0001,740.1469 L411.0001,755.1469" fill="none" style="stroke:#181818;stroke-width:0.5;"/><text fill="#000000" font-family="sans-serif" font-size="14" lengthAdjust="spacing" textLength="112.2803" x="341.86" y="769.642">Kurum Y&#246;netimi</text></g><!--entity DeptHead--><g class="entity" data-qualified-name="DeptHead" data-source-line="19" id="ent0004"><ellipse cx="398.0038" cy="999.1469" fill="#F1F1F1" rx="8" ry="8" style="stroke:#181818;stroke-width:0.5;"/><path d="M398.0038,1007.1469 L398.0038,1034.1469 M385.0038,1015.1469 L411.0038,1015.1469 M398.0038,1034.1469 L385.0038,1049.1469 M398.0038,1034.1469 L411.0038,1049.1469" fill="none" style="stroke:#181818;stroke-width:0.5;"/><text fill="#000000" font-family="sans-serif" font-size="14" lengthAdjust="spacing" textLength="61.6875" x="367.16" y="1063.642">Alan &#350;efi</text></g><g class="entity" data-qualified-name="Notes" data-source-line="52" id="ent0029"><rect fill="#F1F1F1" height="243.5625" rx="2.5" ry="2.5" style="stroke:#181818;stroke-width:0.5;" width="782.0908" x="7" y="44.2969"/><text fill="#000000" font-family="sans-serif" font-size="14" lengthAdjust="spacing" textLength="40.4346" x="377.8281" y="59.292">Notes</text><line style="stroke:#181818;stroke-width:1;" x1="50.3936" x2="50.3936" y1="64.5938" y2="287.8594"/><line style="stroke:#181818;stroke-width:1;" x1="7" x2="789.0908" y1="64.5938" y2="64.5938"/><text fill="#000000" font-family="sans-serif" font-size="14" lengthAdjust="spacing" textLength="27.9043" x="12" y="79.5889">CTA</text><text fill="#000000" font-family="sans-serif" font-size="14" lengthAdjust="spacing" textLength="394.3242" x="55.3936" y="79.5889">Kurum y&#246;netimi, koordinat&#246;r &#246;&#287;retmeni
i&#351;letmelere atar.</text><line style="stroke:#181818;stroke-width:1;" x1="7" x2="789.0908" y1="84.8906" y2="84.8906"/><text fill="#000000" font-family="sans-serif" font-size="14" lengthAdjust="spacing" textLength="28.2393" x="12" y="99.8857">CVS</text><text fill="#000000" font-family="sans-serif" font-size="14" lengthAdjust="spacing" textLength="513.2559" x="55.3936" y="99.8857">Haftal&#305;k ziyaret program&#305; olu&#351;turulur.
Ders program&#305; format&#305;nda g&#246;sterilir.</text><line style="stroke:#181818;stroke-width:1;" x1="7" x2="789.0908" y1="105.1875" y2="105.1875"/><text fill="#000000" font-family="sans-serif" font-size="14" lengthAdjust="spacing" textLength="27.3027" x="12" y="120.1826">CLR</text><text fill="#000000" font-family="sans-serif" font-size="14" lengthAdjust="spacing" textLength="380.5908" x="55.3936" y="120.1826">&#304;&#351;letme konumlar&#305;na g&#246;re ziyaret
rotas&#305; optimize edilir.</text><line style="stroke:#181818;stroke-width:1;" x1="7" x2="789.0908" y1="125.4844" y2="125.4844"/><text fill="#000000" font-family="sans-serif" font-size="14" lengthAdjust="spacing" textLength="30.5225" x="12" y="140.4795">CQR</text><text fill="#000000" font-family="sans-serif" font-size="14" lengthAdjust="spacing" textLength="411.1338" x="55.3936" y="140.4795">Koordinat&#246;r &#246;&#287;retmen, karekodlu
ziyaret raporunu yazd&#305;r&#305;r.</text><line style="stroke:#181818;stroke-width:1;" x1="7" x2="789.0908" y1="145.7813" y2="145.7813"/><text fill="#000000" font-family="sans-serif" font-size="14" lengthAdjust="spacing" textLength="29.0801" x="12" y="160.7764">CVR</text><text fill="#000000" font-family="sans-serif" font-size="14" lengthAdjust="spacing" textLength="414.0527" x="55.3936" y="160.7764">Koordinat&#246;r &#246;&#287;retmen, ziyaret sonras&#305;
raporu sisteme girer.</text><line style="stroke:#181818;stroke-width:1;" x1="7" x2="789.0908" y1="166.0781" y2="166.0781"/><text fill="#000000" font-family="sans-serif" font-size="14" lengthAdjust="spacing" textLength="29.1074" x="12" y="181.0732">CDT</text><text fill="#000000" font-family="sans-serif" font-size="14" lengthAdjust="spacing" textLength="429.085" x="55.3936" y="181.0732">Evrak teslim durumu karekod veya
manuel olarak takip edilir.</text><line style="stroke:#181818;stroke-width:1;" x1="7" x2="789.0908" y1="186.375" y2="186.375"/><text fill="#000000" font-family="sans-serif" font-size="14" lengthAdjust="spacing" textLength="23.6797" x="12" y="201.3701">CCI</text><text fill="#000000" font-family="sans-serif" font-size="14" lengthAdjust="spacing" textLength="457.2627" x="55.3936" y="201.3701">Koordinat&#246;r &#246;&#287;retmen, sorumlu oldu&#287;u
&#246;&#287;rencilerle ileti&#351;im kurar.</text><line style="stroke:#181818;stroke-width:1;" x1="7" x2="789.0908" y1="206.6719" y2="206.6719"/><text fill="#000000" font-family="sans-serif" font-size="14" lengthAdjust="spacing" textLength="27.2139" x="12" y="221.667">CTS</text><text fill="#000000" font-family="sans-serif" font-size="14" lengthAdjust="spacing" textLength="634.1494" x="55.3936" y="221.667">Kurum y&#246;netimi &#246;&#287;retmenlerin ders
programlar&#305;n&#305; y&#252;kler/g&#252;nceller.
Bo&#351; saatler tespit edilir.</text><line style="stroke:#181818;stroke-width:1;" x1="7" x2="789.0908" y1="226.9688" y2="226.9688"/><text fill="#000000" font-family="sans-serif" font-size="14" lengthAdjust="spacing" textLength="31.3359" x="12" y="241.9639">CDD</text><text fill="#000000" font-family="sans-serif" font-size="14" lengthAdjust="spacing" textLength="728.6973" x="55.3936" y="241.9639">Alan &#351;efi, &#246;&#287;retmenlerin bo&#351;
saatlerine g&#246;re i&#351;letme da&#287;&#305;t&#305;m&#305;
yapar. Mesafe ve ek ders s&#305;n&#305;r&#305;
kontrol edilir.</text><line style="stroke:#181818;stroke-width:1;" x1="7" x2="789.0908" y1="247.2656" y2="247.2656"/><text fill="#000000" font-family="sans-serif" font-size="14" lengthAdjust="spacing" textLength="33.3936" x="12" y="262.2607">CWC</text><text fill="#000000" font-family="sans-serif" font-size="14" lengthAdjust="spacing" textLength="639.3379" x="55.3936" y="262.2607">Alan &#351;efi, &#246;&#287;retmenlerin toplam
ek ders y&#252;k&#252;n&#252; hesaplar.
&#350;eflik indirimi ve mesafe kontrol&#252;.</text><line style="stroke:#181818;stroke-width:1;" x1="7" x2="789.0908" y1="267.5625" y2="267.5625"/><text fill="#000000" font-family="sans-serif" font-size="14" lengthAdjust="spacing" textLength="30.1328" x="12" y="282.5576">CDA</text><text fill="#000000" font-family="sans-serif" font-size="14" lengthAdjust="spacing" textLength="676.9424" x="55.3936" y="282.5576">Z&#252;mre karar tutana&#287;&#305; olu&#351;turulur,
m&#252;d&#252;r onay&#305;na sunulur.
Onay/red sonucu atamalar g&#252;ncellenir.</text></g><!--link InstAdmin to CTA--><g class="link" data-entity-1="ent0003" data-entity-2="ent0006" data-link-type="dependency" data-source-line="37" id="lnk17"><path d="M454.64,734.7969 C552.97,734.7969 753.43,734.7969 884.43,734.7969" fill="none" id="InstAdmin-to-CTA" style="stroke:#181818;stroke-width:1;"/><polygon fill="#181818" points="890.43,734.7969,881.43,730.7969,885.43,734.7969,881.43,738.7969,890.43,734.7969" style="stroke:#181818;stroke-width:1;"/></g><!--link InstAdmin to CVS--><g class="link" data-entity-1="ent0003" data-entity-2="ent0007" data-link-type="dependency" data-source-line="38" id="lnk18"><path d="M454.45,715.0469 C536.6,686.0869 695.73,631.1869 833,590.7969 C862.01,582.2569 888.1652,575.246 916.7452,567.976" fill="none" id="InstAdmin-to-CVS" style="stroke:#181818;stroke-width:1;"/><polygon fill="#181818" points="922.56,566.4969,912.8517,564.839,917.7143,567.7295,914.8239,572.5921,922.56,566.4969" style="stroke:#181818;stroke-width:1;"/></g><!--link InstAdmin to CLR--><g class="link" data-entity-1="ent0003" data-entity-2="ent0008" data-link-type="dependency" data-source-line="39" id="lnk19"><path d="M454.64,726.2069 C551.43,711.2569 747.0603,681.0524 878.2803,660.7924" fill="none" id="InstAdmin-to-CLR" style="stroke:#181818;stroke-width:1;"/><polygon fill="#181818" points="884.21,659.8769,874.705,657.297,879.2686,660.6398,875.9257,665.2033,884.21,659.8769" style="stroke:#181818;stroke-width:1;"/></g><!--link InstAdmin to CTS--><g class="link" data-entity-1="ent0003" data-entity-2="ent0013" data-link-type="dependency" data-source-line="40" id="lnk20"><path d="M454.33,751.3769 C536.64,775.9069 696.36,822.9269 833,859.7969 C863.66,868.0669 891.6689,875.2426 921.3289,882.6526" fill="none" id="InstAdmin-to-CTS" style="stroke:#181818;stroke-width:1;"/><polygon fill="#181818" points="927.15,884.1069,919.3879,878.0447,922.2991,882.895,917.4488,885.8062,927.15,884.1069" style="stroke:#181818;stroke-width:1;"/></g><!--link InstAdmin to CDA--><g class="link" data-entity-1="ent0003" data-entity-2="ent0016" data-link-type="dependency" data-source-line="41" id="lnk21"><path d="M454.64,742.4769 C560.68,757.1069 786.5063,788.2669 913.7963,805.8269" fill="none" id="InstAdmin-to-CDA" style="stroke:#181818;stroke-width:1;"/><polygon fill="#181818" points="919.74,806.6469,911.3711,801.4545,914.7869,805.9636,910.2778,809.3794,919.74,806.6469" style="stroke:#181818;stroke-width:1;"/></g><!--link Teacher to CVS--><g class="link" data-entity-1="ent0002" data-entity-2="ent0007" data-link-type="dependency" data-source-line="43" id="lnk22"><path d="M426.78,374.0469 C495.38,396.7869 678.48,456.7269 833,500.7969 C862.38,509.1769 888.9163,516.2132 917.7163,523.5632" fill="none" id="Teacher-to-CVS" style="stroke:#181818;stroke-width:1;"/><polygon fill="#181818" points="923.53,525.0469,915.7986,518.9456,918.6853,523.8105,913.8204,526.6971,923.53,525.0469" style="stroke:#181818;stroke-width:1;"/></g><!--link Teacher to CQR--><g class="link" data-entity-1="ent0002" data-entity-2="ent0009" data-link-type="dependency" data-source-line="44" id="lnk23"><path d="M426.74,364.7969 C505.77,364.7969 729.77,364.7969 875.58,364.7969" fill="none" id="Teacher-to-CQR" style="stroke:#181818;stroke-width:1;"/><polygon fill="#181818" points="881.58,364.7969,872.58,360.7969,876.58,364.7969,872.58,368.7969,881.58,364.7969" style="stroke:#181818;stroke-width:1;"/></g><!--link Teacher to CVR--><g class="link" data-entity-1="ent0002" data-entity-2="ent0010" data-link-type="dependency" data-source-line="45" id="lnk24"><path d="M426.52,361.0769 C491.21,352.2969 657.93,329.4669 797,308.7969 C834.46,303.2269 869.7031,297.7805 905.6331,292.1205" fill="none" id="Teacher-to-CVR" style="stroke:#181818;stroke-width:1;"/><polygon fill="#181818" points="911.56,291.1869,902.0472,288.6361,906.6209,291.9649,903.2921,296.5386,911.56,291.1869" style="stroke:#181818;stroke-width:1;"/></g><!--link Teacher to CDT--><g class="link" data-entity-1="ent0002" data-entity-2="ent0011" data-link-type="dependency" data-source-line="46" id="lnk25"><path d="M426.65,369.1769 C496.41,378.6269 682.12,393.7269 797,308.7969 C827.38,286.3369 803.54,255.4469 833,231.7969 C855.3,213.8869 878.2664,204.9932 906.0764,199.4332" fill="none" id="Teacher-to-CDT" style="stroke:#181818;stroke-width:1;"/><polygon fill="#181818" points="911.96,198.2569,902.3505,196.0989,907.057,199.2371,903.9188,203.9437,911.96,198.2569" style="stroke:#181818;stroke-width:1;"/></g><!--link Teacher to CCI--><g class="link" data-entity-1="ent0002" data-entity-2="ent0012" data-link-type="dependency" data-source-line="47" id="lnk26"><path d="M426.74,368.9469 C509.78,381.3569 753.5759,417.8 897.1659,439.26" fill="none" id="Teacher-to-CCI" style="stroke:#181818;stroke-width:1;"/><polygon fill="#181818" points="903.1,440.1469,894.7901,434.8605,898.1549,439.4078,893.6076,442.7726,903.1,440.1469" style="stroke:#181818;stroke-width:1;"/></g><!--link DeptHead to CDD--><g class="link" data-entity-1="ent0004" data-entity-2="ent0014" data-link-type="dependency" data-source-line="49" id="lnk27"><path d="M429.19,1026.8169 C515.08,1021.1669 757.7529,1005.2199 899.5629,995.9099" fill="none" id="DeptHead-to-CDD" style="stroke:#181818;stroke-width:1;"/><polygon fill="#181818" points="905.55,995.5169,896.3073,992.1151,900.5607,995.8444,896.8314,1000.0979,905.55,995.5169" style="stroke:#181818;stroke-width:1;"/></g><!--link DeptHead to CWC--><g class="link" data-entity-1="ent0004" data-entity-2="ent0015" data-link-type="dependency" data-source-line="50" id="lnk28"><path d="M429.19,1030.8269 C516.52,1036.7069 766.1336,1053.5237 906.6036,1062.9837" fill="none" id="DeptHead-to-CWC" style="stroke:#181818;stroke-width:1;"/><polygon fill="#181818" points="912.59,1063.3869,903.8791,1058.7912,907.6013,1063.0509,903.3416,1066.7731,912.59,1063.3869" style="stroke:#181818;stroke-width:1;"/></g><?plantuml-src bLNBRjiw4DthAmRUT1F7Uoqku5eNI92qkR7T1BVGPchH3YkA4aYgW5FqD-xo-XUQJLRUoVcl7kfXoqxHeZjHd3dpE7E6JZebQ9Bd9f6QdSmrlSkJQgkgBNsmk64hRA34qf7BoSZLWwD46h7mfa4Gl7bmhh3XQ5GergxCrFaYpqQb5SC5F8U9v9NXB0Z2kU35Wp0XiQNsE_WJ_wlIb1dzMprhuMGcQvnBRTquoQJ-8wGnxkdbVx5iG29Hk0l1YSSeU97owgGVNmE0U0mQJERZaAh_TXiZN2RqSFVzPQFy9uqTPppmUB3fETpDGleermm7-iVaFeNT4zseycNZIjEvtCrwBjVJaAxpbEqQmT_oeuB3D7TCDuMl_B6-A1l7wsdFyHQELuYKveagQSf5Rbv5kkqxt4qFoTNc9KMvIdfvzQsZUKX_Vp6SWZ-hP4PpJkKdsLX6yvxbv1A9T2sidismQPbUIDfzHx_aomQ5D8wJotvxP_tsWXfZ3rsBzPxzjj7zhaLHI3MpRSVsrCGwujrcz-HsJm1fiurwdlUJiBR6S6rJZFs5i8mPwdfmF-b70Vy7EBhHlAPPjOKUkZwCWsz1i1zC6Wx_gYVYv0y8F_a39a-zNja0F6YriuSvEeFTu_kJCrWwEgFvGJV_hKLqyWFb1vyj9l5zxeI56Bm81Y4D6a6kEqhEAEqnJjLpnwACjMofKC88OiVcV70MU6rud0jUEWPZAJsserZiTPAtqrkgqfo3I3yFXzjbZa453pfXMbNFrWaZbMp1hwSU_23G59h951kOrzR8f8qNQmDrMH-k4PWWaHo0RckWgvyNXwexmSMwoz_KKj8bhVansJqXP5Vmhw4wVtJR-7oGM2DAAr4RQbXXyRPGqTn3DN9qZHmJJqZP9KHVn9fZdR4kXK8ZkRQ4OekZwYQNlqp98do6PUAtmcw36fjBA1bSuk6GdPefBKt7wtpsa_demS8L4vs0p5YtR3R4W88rD8ZxqQhQweLG-0JlRtEeqpBZgJA-saAweoAYo0Tizle6U_tiLR1FG8Xr2o6rQ2UW6qnAUYiYrcikK0kzmo9O2ZIIH5gdIxPEqdWRp9CpkJhAutxokpnSxZTBh3l0TRroDBREGxDrVBd-RL8o9QdnqlhM8OEioQMDMctRmcibVgos6Oe1yOpsb8vrNSsHUium2jKM3xkX74khLe75Z3R2ydjiP4JYHwzSb5wZ6ICPsjEWVOt1jny0?></g></svg>