<?plantuml 1.2026.2beta3?><svg xmlns="http://www.w3.org/2000/svg" xmlns:xlink="http://www.w3.org/1999/xlink" contentStyleType="text/css" data-diagram-type="DESCRIPTION" height="628px" preserveAspectRatio="none" style="width:1471px;height:628px;background:#FFFFFF;" version="1.1" viewBox="0 0 1471 628" width="1471px" zoomAndPan="magnify"><title>Institution Mod&#252;l&#252; Use Cases</title><defs/><g><g class="title" data-source-line="1"><text fill="#000000" font-family="sans-serif" font-size="14" font-weight="bold" lengthAdjust="spacing" textLength="230.7402" x="613.3499" y="22.9951">Institution Mod&#252;l&#252; Use Cases</text></g><!--cluster Institution--><g class="cluster" data-qualified-name="Institution" data-source-line="11" id="ent0003"><path d="M819.5,190.2969 L903.2354,190.2969 A3.75,3.75 0 0 1 905.7354,192.7969 L912.7354,212.5938 L1461.94,212.5938 A2.5,2.5 0 0 1 1464.44,215.0938 L1464.44,618.7969 A2.5,2.5 0 0 1 1461.94,621.2969 L819.5,621.2969 A2.5,2.5 0 0 1 817,618.7969 L817,192.7969 A2.5,2.5 0 0 1 819.5,190.2969" fill="none" style="stroke:#000000;stroke-width:1.5;"/><line style="stroke:#000000;stroke-width:1.5;" x1="817" x2="912.7354" y1="212.5938" y2="212.5938"/><text fill="#000000" font-family="sans-serif" font-size="14" font-weight="bold" lengthAdjust="spacing" textLength="82.7354" x="821" y="205.292">Institution</text></g><!--cluster IBM Alt Use Case'leri--><g class="cluster" data-qualified-name="Institution.IBM Alt Use Case.leri" data-source-line="18" id="ent0009"><path d="M1192.09,248.2969 L1356.8791,248.2969 A3.75,3.75 0 0 1 1359.3791,250.7969 L1366.3791,270.5938 L1437.94,270.5938 A2.5,2.5 0 0 1 1440.44,273.0938 L1440.44,593.7969 A2.5,2.5 0 0 1 1437.94,596.2969 L1192.09,596.2969 A2.5,2.5 0 0 1 1189.59,593.7969 L1189.59,250.7969 A2.5,2.5 0 0 1 1192.09,248.2969" fill="none" style="stroke:#000000;stroke-width:1.5;"/><line style="stroke:#000000;stroke-width:1.5;" x1="1189.59" x2="1366.3791" y1="270.5938" y2="270.5938"/><text fill="#000000" font-family="sans-serif" font-size="14" font-weight="bold" lengthAdjust="spacing" textLength="163.7891" x="1193.59" y="263.292">IBM Alt Use Case'leri</text></g><!--entity ICR--><g class="entity" data-qualified-name="Institution.ICR" data-source-line="12" id="ent0004"><ellipse cx="955.8027" cy="250.2934" fill="#F1F1F1" rx="111.8327" ry="24.7665" style="stroke:#181818;stroke-width:0.5;"/><text fill="#000000" font-family="sans-serif" font-size="14" lengthAdjust="spacing" textLength="201.8379" x="854.8838" y="254.9419">ICR: Kurum Bilgileri Y&#246;netimi</text></g><!--entity ISA--><g class="entity" data-qualified-name="Institution.ISA" data-source-line="13" id="ent0005"><ellipse cx="955.7992" cy="334.2927" fill="#F1F1F1" rx="107.7792" ry="23.9558" style="stroke:#181818;stroke-width:0.5;"/><text fill="#000000" font-family="sans-serif" font-size="14" lengthAdjust="spacing" textLength="193.0674" x="859.2655" y="338.9412">ISA: Personel Yetkilendirme</text></g><!--entity IBM--><g class="entity" data-qualified-name="Institution.IBM" data-source-line="14" id="ent0006"><ellipse cx="955.7988" cy="414.2966" fill="#F1F1F1" rx="92.6988" ry="20.9398" style="stroke:#181818;stroke-width:0.5;"/><text fill="#000000" font-family="sans-serif" font-size="14" lengthAdjust="spacing" textLength="159.8242" x="875.8867" y="418.9451">IBM: Alan/Dal Y&#246;netimi</text></g><!--entity ISP--><g class="entity" data-qualified-name="Institution.ISP" data-source-line="15" id="ent0007"><ellipse cx="955.7996" cy="493.2988" fill="#F1F1F1" rx="101.1096" ry="22.6219" style="stroke:#181818;stroke-width:0.5;"/><text fill="#000000" font-family="sans-serif" font-size="14" lengthAdjust="spacing" textLength="178.5" x="866.5496" y="497.9472">ISP: Sistem Parametreleri</text></g><!--entity IVW--><g class="entity" data-qualified-name="Institution.IVW" data-source-line="16" id="ent0008"><ellipse cx="955.7971" cy="578.2963" fill="#F1F1F1" rx="122.7971" ry="26.9594" style="stroke:#181818;stroke-width:0.5;"/><text fill="#000000" font-family="sans-serif" font-size="14" lengthAdjust="spacing" textLength="225.3125" x="843.1409" y="582.9447">IVW: Kurum Bilgisi G&#246;r&#252;nt&#252;leme</text></g><!--entity IBM_CAT--><g class="entity" data-qualified-name="Institution.IBM Alt Use Case.leri.IBM_CAT" data-source-line="19" id="ent0010"><ellipse cx="1315.0209" cy="556.3011" fill="#F1F1F1" rx="109.4209" ry="24.2842" style="stroke:#181818;stroke-width:0.5;"/><text fill="#000000" font-family="sans-serif" font-size="14" lengthAdjust="spacing" textLength="165.3477" x="1232.3471" y="555.6958">IBM-CAT: Alan Katalo&#287;u</text><text fill="#000000" font-family="sans-serif" font-size="14" lengthAdjust="spacing" textLength="92.0322" x="1269.0048" y="571.9926">G&#246;r&#252;nt&#252;leme</text></g><!--entity IBM_ACT--><g class="entity" data-qualified-name="Institution.IBM Alt Use Case.leri.IBM_ACT" data-source-line="20" id="ent0011"><ellipse cx="1315.0184" cy="473.2986" fill="#F1F1F1" rx="107.5084" ry="23.9017" style="stroke:#181818;stroke-width:0.5;"/><text fill="#000000" font-family="sans-serif" font-size="14" lengthAdjust="spacing" textLength="192.4795" x="1218.7787" y="477.947">IBM-ACT: Alan Aktifle&#351;tirme</text></g><!--entity IBM_DAC--><g class="entity" data-qualified-name="Institution.IBM Alt Use Case.leri.IBM_DAC" data-source-line="21" id="ent0012"><ellipse cx="1315.0222" cy="390.2993" fill="#F1F1F1" rx="109.0622" ry="24.2124" style="stroke:#181818;stroke-width:0.5;"/><text fill="#000000" font-family="sans-serif" font-size="14" lengthAdjust="spacing" textLength="195.8496" x="1217.0974" y="394.9478">IBM-DAC: Alan Pasifle&#351;tirme</text></g><!--entity IBM_SPE--><g class="entity" data-qualified-name="Institution.IBM Alt Use Case.leri.IBM_SPE" data-source-line="22" id="ent0013"><ellipse cx="1315.0151" cy="307.2934" fill="#F1F1F1" rx="94.6851" ry="24.2665" style="stroke:#181818;stroke-width:0.5;"/><text fill="#000000" font-family="sans-serif" font-size="14" lengthAdjust="spacing" textLength="140.5195" x="1244.7553" y="306.4273">IBM-SPE: Dal Se&#231;imi</text><text fill="#000000" font-family="sans-serif" font-size="14" lengthAdjust="spacing" textLength="83.5488" x="1273.2406" y="322.7242">G&#252;ncelleme</text></g><!--entity InstAdmin--><g class="entity" data-qualified-name="InstAdmin" data-source-line="7" id="ent0002"><ellipse cx="384.5001" cy="384.6469" fill="#F1F1F1" rx="8" ry="8" style="stroke:#181818;stroke-width:0.5;"/><path d="M384.5001,392.6469 L384.5001,419.6469 M371.5001,400.6469 L397.5001,400.6469 M384.5001,419.6469 L371.5001,434.6469 M384.5001,419.6469 L397.5001,434.6469" fill="none" style="stroke:#181818;stroke-width:0.5;"/><text fill="#000000" font-family="sans-serif" font-size="14" lengthAdjust="spacing" textLength="112.2803" x="328.36" y="449.142">Kurum Y&#246;netimi</text></g><g class="entity" data-qualified-name="Phase2Note" data-source-line="26" id="ent0014"><path d="M264.32,285.5969 L264.32,340.9953 L504.6823,340.9953 L504.6823,295.5969 L494.6823,285.5969 L264.32,285.5969" fill="#FEFFDD" style="stroke:#181818;stroke-width:0.5;"/><path d="M494.6823,285.5969 L494.6823,295.5969 L504.6823,295.5969 L494.6823,285.5969" fill="#FEFFDD" style="stroke:#181818;stroke-width:1;"/><text fill="#000000" font-family="sans-serif" font-size="13" lengthAdjust="spacing" textLength="193.1338" x="270.32" y="302.6638">Phase 2: TenantAdmin akt&#246;r&#252;</text><text fill="#000000" font-family="sans-serif" font-size="13" lengthAdjust="spacing" textLength="219.3623" x="270.32" y="317.7966">Tenant mod&#252;l&#252; aktifle&#351;tirildi&#287;inde</text><text fill="#000000" font-family="sans-serif" font-size="13" lengthAdjust="spacing" textLength="168.251" x="270.32" y="332.9294">ICR ve ISP'ye ba&#287;lanacak.</text></g><g class="entity" data-qualified-name="Notes" data-source-line="39" id="ent0024"><rect fill="#F1F1F1" height="202.9688" rx="2.5" ry="2.5" style="stroke:#181818;stroke-width:0.5;" width="755.3965" x="7" y="44.2969"/><text fill="#000000" font-family="sans-serif" font-size="14" lengthAdjust="spacing" textLength="40.4346" x="364.481" y="59.292">Notes</text><line style="stroke:#181818;stroke-width:1;" x1="77.9971" x2="77.9971" y1="64.5938" y2="247.2656"/><line style="stroke:#181818;stroke-width:1;" x1="7" x2="762.3965" y1="64.5938" y2="64.5938"/><text fill="#000000" font-family="sans-serif" font-size="14" lengthAdjust="spacing" textLength="23.6318" x="12" y="79.5889">ICR</text><text fill="#000000" font-family="sans-serif" font-size="14" lengthAdjust="spacing" textLength="425.5166" x="82.9971" y="79.5889">Kurum bilgileri (ad, adres, ileti&#351;im)
olu&#351;turma ve g&#252;ncelleme.</text><line style="stroke:#181818;stroke-width:1;" x1="7" x2="762.3965" y1="84.8906" y2="84.8906"/><text fill="#000000" font-family="sans-serif" font-size="14" lengthAdjust="spacing" textLength="22.5928" x="12" y="99.8857">ISA</text><text fill="#000000" font-family="sans-serif" font-size="14" lengthAdjust="spacing" textLength="371.5537" x="82.9971" y="99.8857">Kurum m&#252;d&#252;r&#252;, personele rol ve
yetki atamas&#305; yapar.</text><line style="stroke:#181818;stroke-width:1;" x1="7" x2="762.3965" y1="105.1875" y2="105.1875"/><text fill="#000000" font-family="sans-serif" font-size="14" lengthAdjust="spacing" textLength="25.8125" x="12" y="120.1826">IBM</text><text fill="#000000" font-family="sans-serif" font-size="14" lengthAdjust="spacing" textLength="674.3994" x="82.9971" y="120.1826">Kurumun mesleki alan ve dallar&#305;n&#305;
y&#246;netir. MEB katalo&#287;undan se&#231;im
yap&#305;l&#305;r, alan/dal aktifle&#351;tirilir.</text><line style="stroke:#181818;stroke-width:1;" x1="7" x2="762.3965" y1="125.4844" y2="125.4844"/><text fill="#000000" font-family="sans-serif" font-size="14" lengthAdjust="spacing" textLength="58.7686" x="12" y="140.4795">IBM-CAT</text><text fill="#000000" font-family="sans-serif" font-size="14" lengthAdjust="spacing" textLength="510.1045" x="82.9971" y="140.4795">MEB resmi alan/dal katalo&#287;unu
e&#287;itim t&#252;r&#252;ne g&#246;re (MTAL/MESEM)
listeler.</text><line style="stroke:#181818;stroke-width:1;" x1="7" x2="762.3965" y1="145.7813" y2="145.7813"/><text fill="#000000" font-family="sans-serif" font-size="14" lengthAdjust="spacing" textLength="58.7686" x="12" y="160.7764">IBM-ACT</text><text fill="#000000" font-family="sans-serif" font-size="14" lengthAdjust="spacing" textLength="575.3604" x="82.9971" y="160.7764">Katalogdan se&#231;ilen alan&#305; kurum
i&#231;in aktifle&#351;tirir. BranchActivated
event'i yay&#305;nlan&#305;r.</text><line style="stroke:#181818;stroke-width:1;" x1="7" x2="762.3965" y1="166.0781" y2="166.0781"/><text fill="#000000" font-family="sans-serif" font-size="14" lengthAdjust="spacing" textLength="60.9971" x="12" y="181.0732">IBM-DAC</text><text fill="#000000" font-family="sans-serif" font-size="14" lengthAdjust="spacing" textLength="492.3379" x="82.9971" y="181.0732">Kurumun aktif alan&#305;n&#305; pasife al&#305;r.
BranchDeactivated event'i yay&#305;nlan&#305;r.</text><line style="stroke:#181818;stroke-width:1;" x1="7" x2="762.3965" y1="186.375" y2="186.375"/><text fill="#000000" font-family="sans-serif" font-size="14" lengthAdjust="spacing" textLength="57.0391" x="12" y="201.3701">IBM-SPE</text><text fill="#000000" font-family="sans-serif" font-size="14" lengthAdjust="spacing" textLength="556.4932" x="82.9971" y="201.3701">Aktif alandaki dallar&#305; g&#252;nceller.
BranchSpecializationsUpdated
event'i yay&#305;nlan&#305;r.</text><line style="stroke:#181818;stroke-width:1;" x1="7" x2="762.3965" y1="206.6719" y2="206.6719"/><text fill="#000000" font-family="sans-serif" font-size="14" lengthAdjust="spacing" textLength="21.458" x="12" y="221.667">ISP</text><text fill="#000000" font-family="sans-serif" font-size="14" lengthAdjust="spacing" textLength="396.8672" x="82.9971" y="221.667">Asgari &#252;cret gibi sistem geneli
parametreleri yap&#305;land&#305;r&#305;r.</text><line style="stroke:#181818;stroke-width:1;" x1="7" x2="762.3965" y1="226.9688" y2="226.9688"/><text fill="#000000" font-family="sans-serif" font-size="14" lengthAdjust="spacing" textLength="27.5488" x="12" y="241.9639">IVW</text><text fill="#000000" font-family="sans-serif" font-size="14" lengthAdjust="spacing" textLength="237.4531" x="82.9971" y="241.9639">Kurum detay bilgilerini
g&#246;r&#252;nt&#252;ler.</text></g><!--link InstAdmin to ICR--><g class="link" data-entity-1="ent0002" data-entity-2="ent0004" data-link-type="dependency" data-source-line="28" id="lnk15"><path d="M440.99,420.2669 C520.73,425.9369 669.22,425.4169 770,358.2969 C798.04,339.6269 782.36,313.9169 809,293.2969 C825.49,280.5369 839.9576,273.3607 860.0076,267.0407" fill="none" id="InstAdmin-to-ICR" style="stroke:#181818;stroke-width:1;"/><polygon fill="#181818" points="865.73,265.2369,855.9438,264.1276,860.9613,266.74,858.3489,271.7575,865.73,265.2369" style="stroke:#181818;stroke-width:1;"/></g><!--link InstAdmin to ISA--><g class="link" data-entity-1="ent0002" data-entity-2="ent0005" data-link-type="dependency" data-source-line="29" id="lnk16"><path d="M441.12,406.4769 C539.4,392.6669 738.6484,364.6721 857.8084,347.9221" fill="none" id="InstAdmin-to-ISA" style="stroke:#181818;stroke-width:1;"/><polygon fill="#181818" points="863.75,347.0869,854.2808,344.3786,858.7987,347.7829,855.3944,352.3007,863.75,347.0869" style="stroke:#181818;stroke-width:1;"/></g><!--link InstAdmin to IBM--><g class="link" data-entity-1="ent0002" data-entity-2="ent0006" data-link-type="dependency" data-source-line="30" id="lnk17"><path d="M441.12,414.2969 C539.12,414.2969 737.42,414.2969 856.73,414.2969" fill="none" id="InstAdmin-to-IBM" style="stroke:#181818;stroke-width:1;"/><polygon fill="#181818" points="862.73,414.2969,853.73,410.2969,857.73,414.2969,853.73,418.2969,862.73,414.2969" style="stroke:#181818;stroke-width:1;"/></g><!--link InstAdmin to ISP--><g class="link" data-entity-1="ent0002" data-entity-2="ent0007" data-link-type="dependency" data-source-line="31" id="lnk18"><path d="M441.12,422.0169 C540.87,435.8569 744.807,464.1518 863.087,480.5718" fill="none" id="InstAdmin-to-ISP" style="stroke:#181818;stroke-width:1;"/><polygon fill="#181818" points="869.03,481.3969,860.6655,476.1973,864.0775,480.7094,859.5655,484.1213,869.03,481.3969" style="stroke:#181818;stroke-width:1;"/></g><!--link InstAdmin to IVW--><g class="link" data-entity-1="ent0002" data-entity-2="ent0008" data-link-type="dependency" data-source-line="32" id="lnk19"><path d="M441.12,430.3169 C544.08,459.9769 758.6345,521.7858 874.4245,555.1458" fill="none" id="InstAdmin-to-IVW" style="stroke:#181818;stroke-width:1;"/><polygon fill="#181818" points="880.19,556.8069,872.6492,550.4716,875.3854,555.4226,870.4344,558.1589,880.19,556.8069" style="stroke:#181818;stroke-width:1;"/></g><!--link IBM to IBM_CAT--><g class="link" data-entity-1="ent0006" data-entity-2="ent0010" data-link-type="dependency" data-source-line="34" id="lnk20"><path d="M1018.3,430.0569 C1038.05,436.1369 1059.7,443.9269 1078.59,453.2969 C1093.18,460.5269 1094.77,465.7069 1108.59,474.2969 C1140.02,493.8269 1147.58,499.7469 1181.59,514.2969 C1201.77,522.9269 1218.614,528.9344 1239.314,535.4144" fill="none" id="IBM-to-IBM_CAT" style="stroke:#181818;stroke-width:1;stroke-dasharray:7,7;"/><polygon fill="#181818" points="1245.04,537.2069,1237.646,530.7008,1240.2683,535.7131,1235.256,538.3355,1245.04,537.2069" style="stroke:#181818;stroke-width:1;"/><text fill="#000000" font-family="sans-serif" font-size="13" lengthAdjust="spacing" textLength="63.0068" x="1109.59" y="470.3638">&#171;include&#187;</text></g><!--link IBM to IBM_ACT--><g class="link" data-entity-1="ent0006" data-entity-2="ent0011" data-link-type="dependency" data-source-line="35" id="lnk21"><path d="M1031.68,426.6669 C1088.86,436.1069 1161.8303,448.1588 1221.6903,458.0488" fill="none" id="IBM-to-IBM_ACT" style="stroke:#181818;stroke-width:1;stroke-dasharray:7,7;"/><polygon fill="#181818" points="1227.61,459.0269,1219.3824,453.6133,1222.6769,458.2118,1218.0783,461.5063,1227.61,459.0269" style="stroke:#181818;stroke-width:1;"/><text fill="#000000" font-family="sans-serif" font-size="13" lengthAdjust="spacing" textLength="63.0068" x="1109.59" y="436.3638">&#171;include&#187;</text></g><!--link IBM to IBM_DAC--><g class="link" data-entity-1="ent0006" data-entity-2="ent0012" data-link-type="dependency" data-source-line="36" id="lnk22"><path d="M1045.1,408.3669 C1095.1,405.0069 1151.9235,401.1895 1204.2635,397.6695" fill="none" id="IBM-to-IBM_DAC" style="stroke:#181818;stroke-width:1;stroke-dasharray:7,7;"/><polygon fill="#181818" points="1210.25,397.2669,1201.0019,393.8798,1205.2613,397.6024,1201.5387,401.8618,1210.25,397.2669" style="stroke:#181818;stroke-width:1;"/><text fill="#000000" font-family="sans-serif" font-size="13" lengthAdjust="spacing" textLength="63.0068" x="1109.59" y="396.3638">&#171;include&#187;</text></g><!--link IBM to IBM_SPE--><g class="link" data-entity-1="ent0006" data-entity-2="ent0013" data-link-type="dependency" data-source-line="37" id="lnk23"><path d="M1013.01,397.4569 C1078.04,377.9769 1179.0425,347.729 1246.3925,327.549" fill="none" id="IBM-to-IBM_SPE" style="stroke:#181818;stroke-width:1;stroke-dasharray:7,7;"/><polygon fill="#181818" points="1252.14,325.8269,1242.3706,324.5784,1247.3504,327.262,1244.6668,332.2418,1252.14,325.8269" style="stroke:#181818;stroke-width:1;"/><text fill="#000000" font-family="sans-serif" font-size="13" lengthAdjust="spacing" textLength="63.0068" x="1109.59" y="347.3638">&#171;include&#187;</text></g><?plantuml-src XLHDQzj04BthLmo-k0L_G8yY66GdbD2gY3fD21ZAH9h8MwzMOdSLS4D_Yuyz-vAJRtR_LsUbMB9CIT5jDVFcpPitOuML1DVAM65BAt85OPxiTtA_Ws-6O8Q6Z2VfqOBDGOjqQI4Hcc8NwdbUVsbjOVpnk92eR9d9KPnduzBGCERCOI8mrPXvdl-fr6K6z_iNHLPamWSqLTKWoOG3yWgCLvXsgJnxZEI0e7Sz--f33J8LCXMIj6ZXUXNSxEj9_3pm8I9jSaKIxickE4KnzOpgu7bm4ZmDVGYuW_4bodFKQNYA6lam5yPI1X5oPsGrEIglcD59wErTXx0Hy77_elSxPLbUEjAulMjRTpoOXcsKxzVGpnscmrbmKxE5JsXHveTDkL3_mfw6tpcscnpCZid1oef7INysjXM5CpYWct4Pp5up8ZJ_ok20RiOyklB1AJcd_M_MqR7RgPXaXnf7UR_uyrHkEJ5QklmFFjoGOYjLlW1SsQglXQfV8JkQ4q_O2vc8mqQeX1QAJG1Fv4RHNnCyu673p376rQWgN5Nvy8KhUbvZFnWE9vLxpbxO8cSlx8NpcEZynKtK3N8qcXn703vSN0WLopAXoQJpb-L-uozB-yPVLl3ih_U3_GwkFSEkSKlJyw5Nk_2XMPjtc0m04qrc0FnYnP-DoDulL2vBrhFK6Je9qtPcezx0SnlLWcNx7G-29pE0udN927GkEN6XrcxRWBsPeJbiOOq5wXfY6ZOGfOACZ2GNwSp55HEK4lLXgmvR1gctK8yWl9h2wkXqbN2igNp5CLWSjlAmrOCAOym0PyOGJM6tDgwuG-FECz6cjE2yICHEukK7MxMdd0ulck1TU1Dy7eTNywkGbPBk1B2M3JYFiUgiGaeRZdnogZAimierlL22NrMN9BSurQZYPS1NzGaj9SpYYPJj2zPkpNfK26qnTiMfZ1NOQnbNgN1hIlpWSXQgnhuaFAB3c-1iAWSUDA09yeYEesbTqKBF2ue5Il4JtT4stuhaVptCewg4IP7TkD_5cYoaua60gKzhIkmdFXl5wOc5UjfCY74QgDkxrfG9MLotFbUCa9wSHSxmVlq5?></g></svg>